<svg width="139" height="37" viewBox="0 0 139 37" fill="none" xmlns="http://www.w3.org/2000/svg">
<g clip-path="url(#clip0_10_1595)">
<path d="M46.9089 0.498423V6.06812H46.5368V0.498423H45.0889V0.156494H48.351V0.498423H46.9089Z" fill="#2F2E27"/>
<path d="M53.7591 6.06812V2.99058H50.1713V6.06812H49.8049V0.156494H50.1713V2.64865H53.7591V0.156494H54.1371V6.06812H53.7591Z" fill="#2F2E27"/>
<path d="M55.8523 6.06812V0.156494H58.9865V0.498423H56.2303V2.64865H58.9865V3.01379H56.2303V5.72619H58.9865V6.06812H55.8523Z" fill="#2F2E27"/>
<path d="M105.285 33.5516C104.928 33.8309 104.483 33.9765 104.029 33.963H102.802V36.9189H102.436V31.0072H104.029C104.481 30.9929 104.925 31.1341 105.285 31.4071C105.451 31.5302 105.584 31.6915 105.673 31.8773C105.762 32.0631 105.805 32.2677 105.797 32.4735C105.805 32.681 105.762 32.8872 105.673 33.0749C105.584 33.2625 105.451 33.426 105.285 33.5516ZM105.006 31.6274C104.715 31.4304 104.368 31.3327 104.017 31.3491H102.802V33.6095H104.017C104.376 33.6225 104.729 33.5188 105.023 33.3139C105.154 33.2141 105.258 33.0847 105.328 32.9365C105.398 32.7883 105.431 32.6256 105.425 32.462C105.428 32.2994 105.392 32.1383 105.319 31.9928C105.246 31.8473 105.139 31.7219 105.006 31.6274Z" fill="#2F2E27"/>
<path d="M110.739 36.9189L108.669 33.963H107.966V36.9189H107.599V31.0072H109.105C109.34 31.0066 109.573 31.0397 109.797 31.1057C110.007 31.1602 110.205 31.2546 110.379 31.3839C110.535 31.5087 110.664 31.6647 110.757 31.8418C110.853 32.0384 110.901 32.2549 110.896 32.4735C110.903 32.7042 110.859 32.9336 110.768 33.1458C110.681 33.3279 110.551 33.4868 110.391 33.6095C110.217 33.7362 110.019 33.8269 109.809 33.8761C109.573 33.936 109.331 33.9652 109.088 33.963L111.181 36.9189H110.739ZM110.396 31.9751C110.326 31.8357 110.222 31.7161 110.094 31.6274C109.958 31.5316 109.807 31.4609 109.646 31.4187C109.466 31.3714 109.28 31.348 109.094 31.3491H107.966V33.6095H109.198C109.538 33.6256 109.872 33.5208 110.14 33.3139C110.263 33.2085 110.359 33.0761 110.422 32.9273C110.485 32.7785 110.512 32.6172 110.501 32.4561C110.504 32.2899 110.468 32.1253 110.396 31.9751Z" fill="#2F2E27"/>
<path d="M118.467 36.1481C117.782 36.696 116.93 36.9946 116.051 36.9946C115.173 36.9946 114.32 36.696 113.635 36.1481C113.338 35.8651 113.102 35.5251 112.94 35.1485C112.779 34.772 112.696 34.3667 112.696 33.9573C112.696 33.5478 112.779 33.1426 112.94 32.766C113.102 32.3895 113.338 32.0495 113.635 31.7665C114.321 31.2171 115.174 30.9176 116.054 30.9176C116.934 30.9176 117.787 31.2171 118.473 31.7665C118.771 32.0485 119.008 32.3879 119.169 32.764C119.331 33.1401 119.415 33.5451 119.415 33.9544C119.415 34.3636 119.331 34.7686 119.169 35.1447C119.008 35.5208 118.771 35.8602 118.473 36.1423L118.467 36.1481ZM118.206 32.0157C117.598 31.5249 116.839 31.2571 116.057 31.2571C115.275 31.2571 114.516 31.5249 113.909 32.0157C113.636 32.2605 113.42 32.5615 113.275 32.8977C113.131 33.2339 113.061 33.5974 113.071 33.9631C113.059 34.3268 113.127 34.6887 113.271 35.0233C113.414 35.3578 113.63 35.6567 113.903 35.8988C114.492 36.4203 115.261 36.6945 116.048 36.6639C116.836 36.6951 117.607 36.428 118.206 35.9162C118.469 35.6637 118.678 35.3608 118.822 35.0257C118.965 34.6906 119.038 34.3301 119.038 33.966C119.038 33.6018 118.965 33.2413 118.822 32.9062C118.678 32.5711 118.469 32.2682 118.206 32.0157Z" fill="#2F2E27"/>
<path d="M121.166 36.9826C120.965 36.9948 120.765 36.9508 120.588 36.8556C120.412 36.7603 120.265 36.6176 120.166 36.4436L120.485 36.2639C120.551 36.3838 120.649 36.4831 120.768 36.5506C120.887 36.6182 121.023 36.6514 121.16 36.6464C121.613 36.6464 121.846 36.3393 121.846 35.7249V31.0072H122.218V35.7423C122.241 36.5711 121.893 36.9826 121.166 36.9826Z" fill="#2F2E27"/>
<path d="M124.352 36.9189V31.0072H127.487V31.3491H124.73V33.4994H127.487V33.8645H124.73V36.5769H127.487V36.9189H124.352Z" fill="#2F2E27"/>
<path d="M134.272 36.5711C133.851 36.823 133.373 36.9646 132.883 36.9826H132.668H132.417C131.537 37.0207 130.675 36.7198 130.01 36.1422C129.703 35.866 129.459 35.5265 129.297 35.1472C129.134 34.7679 129.056 34.3579 129.068 33.9456C129.054 33.5358 129.13 33.1279 129.291 32.7504C129.451 32.373 129.693 32.0352 129.998 31.7606C130.667 31.1807 131.532 30.8761 132.417 30.9087C132.932 30.9023 133.444 30.9766 133.935 31.1289C134.211 31.2304 134.473 31.3667 134.714 31.5346V31.9577C134.456 31.765 134.172 31.609 133.871 31.494C133.405 31.3247 132.913 31.2384 132.417 31.239C131.635 31.211 130.871 31.4827 130.283 31.9982C130.019 32.2484 129.809 32.5496 129.665 32.8833C129.521 33.2171 129.447 33.5766 129.447 33.9398C129.447 34.3031 129.521 34.6625 129.665 34.9963C129.809 35.3301 130.019 35.6312 130.283 35.8814C130.873 36.4029 131.642 36.677 132.429 36.6464C132.915 36.6555 133.398 36.5647 133.848 36.3799C134.153 36.2339 134.446 36.0653 134.726 35.8756V36.2639L134.272 36.5711Z" fill="#2F2E27"/>
<path d="M137.447 31.3491V36.9189H137.075V31.3491H135.645V31.0072H138.907V31.3491H137.447Z" fill="#2F2E27"/>
<path d="M53.352 24.6841C52.4993 25.35 51.4401 25.6985 50.3573 25.6694H46.1531V13.4983H49.4269C50.3158 13.4517 51.1939 13.7093 51.9157 14.2286C52.2387 14.4912 52.4954 14.8257 52.6651 15.2052C52.8347 15.5847 52.9127 15.9986 52.8926 16.4136C52.9119 16.9053 52.7846 17.3917 52.527 17.8115C52.2693 18.2313 51.8927 18.5657 51.4447 18.7724C52.3097 18.9045 53.1091 19.311 53.7241 19.9316C54.0244 20.2638 54.2537 20.6536 54.3979 21.0771C54.5421 21.5005 54.5983 21.9488 54.5629 22.3946C54.5275 22.8405 54.4014 23.2744 54.1922 23.67C53.983 24.0656 53.6951 24.4146 53.3461 24.6957L53.352 24.6841ZM51.3865 14.8023C50.8501 14.3839 50.1833 14.1665 49.5025 14.188H46.909V18.6218H49.6013C50.2597 18.6475 50.9042 18.4286 51.4098 18.0074C51.6431 17.8112 51.8286 17.5647 51.9525 17.2866C52.0764 17.0085 52.1354 16.7061 52.125 16.402C52.14 16.0958 52.0807 15.7906 51.9521 15.5121C51.8236 15.2336 51.6295 14.9902 51.3865 14.8023ZM52.7995 20.0707C52.1039 19.555 51.2527 19.2912 50.3863 19.323H46.8974V24.9739H50.3863C51.2634 24.9975 52.1218 24.7192 52.817 24.1856C53.1362 23.9452 53.395 23.6343 53.5733 23.2773C53.7515 22.9203 53.8443 22.5269 53.8443 22.1282C53.8443 21.7294 53.7515 21.3361 53.5733 20.9791C53.395 20.6221 53.1362 20.3111 52.817 20.0707H52.7995Z" fill="#2F2E27"/>
<path d="M69.1744 25.6694L67.6276 22.018H61.5103L59.9461 25.6694H59.1902L64.5574 13.0926L69.9478 25.6694H69.1744ZM64.5574 14.8661L61.8069 21.3167H67.3078L64.5574 14.8661Z" fill="#2F2E27"/>
<path d="M74.8613 25.6693V13.4983H75.6173V24.9738H79.4028V25.6693H74.8613Z" fill="#2F2E27"/>
<path d="M93.6029 25.6694L92.091 22.018H85.9388L84.3746 25.6694H83.6187L88.9917 13.0926L94.3763 25.6694H93.6029ZM88.9917 14.8661L86.2412 21.3167H91.7421L88.9917 14.8661Z" fill="#2F2E27"/>
<path d="M100.046 15.3298V25.6694H99.2957V13.3998L109.332 24.0697V13.4867H110.117V25.878L100.046 15.3298Z" fill="#2F2E27"/>
<path d="M126.754 24.9565C125.885 25.4714 124.902 25.7641 123.893 25.8084H123.439H122.933C121.113 25.8877 119.333 25.265 117.962 24.0697C117.351 23.4861 116.866 22.7856 116.534 22.0102C116.203 21.2348 116.032 20.4006 116.032 19.5578C116.032 18.7149 116.203 17.8807 116.534 17.1053C116.866 16.33 117.351 15.6294 117.962 15.0458C119.342 13.8511 121.13 13.2289 122.957 13.307C124.016 13.2939 125.07 13.4504 126.079 13.7707C126.652 13.9708 127.192 14.2519 127.684 14.6053V15.4747C127.149 15.0779 126.562 14.7561 125.94 14.5184C124.981 14.1678 123.967 13.9893 122.945 13.991C121.328 13.9288 119.749 14.4915 118.537 15.5616C117.992 16.0771 117.558 16.6977 117.262 17.3857C116.965 18.0737 116.812 18.8147 116.812 19.5636C116.812 20.3124 116.965 21.0533 117.262 21.7413C117.558 22.4294 117.992 23.05 118.537 23.5655C119.754 24.6378 121.339 25.2004 122.962 25.1362C123.959 25.1576 124.949 24.9721 125.87 24.5914C126.499 24.2907 127.104 23.9419 127.678 23.5481V24.3363L126.754 24.9565Z" fill="#2F2E27"/>
<path d="M132.54 25.6693V13.4983H139V14.1996H133.313V18.6333H139V19.3868H133.313V24.9855H139V25.6809L132.54 25.6693Z" fill="#2F2E27"/>
<path d="M0 9.75427H32.8834L16.6016 36.8783L0 9.75427ZM16.5667 32.3577L28.3245 12.4319H4.41934L16.5667 32.3577Z" fill="#2F2E27"/>
<path d="M0 -0.00579834H32.8834L16.6016 27.1183L0 -0.00579834ZM16.5667 22.5976L28.3245 2.67183H4.41934L16.5667 22.5976Z" fill="#2F2E27"/>
</g>
<defs>
<clipPath id="clip0_10_1595">
<rect width="139" height="37" fill="white"/>
</clipPath>
</defs>
</svg>
