<svg width="143" height="55" viewBox="0 0 143 55" fill="none" xmlns="http://www.w3.org/2000/svg">
<g clip-path="url(#clip0_31_2329)">
<path d="M73.1193 54.3145C72.0235 54.3145 70.9276 54.3145 69.822 54.2359C58.1244 53.6235 46.7904 49.9414 36.9487 43.5561C27.107 37.1709 19.1008 28.3054 13.7274 17.8423L17.2107 16.0422C22.2436 25.9155 29.7733 34.2831 39.0429 40.3036C48.3125 46.3241 58.9953 49.7854 70.0175 50.3397C81.0397 50.894 92.0128 48.5216 101.834 43.4611C111.655 38.4005 119.978 30.8303 125.965 21.5111L129.253 23.6455C123.172 33.047 114.853 40.7752 105.052 46.1303C95.2504 51.4854 84.2749 54.2984 73.1193 54.3145Z" fill="white"/>
<path d="M47.5916 11.7143H46.7403C43.7336 11.5555 40.8207 10.6073 38.2919 8.96439C35.7632 7.32144 33.7068 5.04113 32.3278 2.35048L35.811 0.560242C36.8748 2.63832 38.4639 4.39841 40.4186 5.66368C42.3732 6.92894 44.6247 7.65487 46.9468 7.7685C49.2689 7.88212 51.5799 7.37941 53.6475 6.31097C55.7152 5.24253 57.4668 3.64596 58.7264 1.68157L62.0139 3.81605C60.4531 6.23455 58.3168 8.2234 55.7985 9.60256C53.2801 10.9817 50.4594 11.7075 47.5916 11.7143Z" fill="white"/>
<path d="M9.13848 18.5209C6.17724 18.5234 3.26547 17.7577 0.684692 16.298L2.64159 12.875C4.33949 13.8414 6.22891 14.4185 8.17461 14.5651C10.1203 14.7117 12.0742 14.4242 13.8964 13.7231C15.7186 13.0219 17.3642 11.9244 18.7152 10.5093C20.0663 9.09416 21.0895 7.3964 21.7116 5.53732L25.4199 6.79625C24.2792 10.2189 22.0953 13.1935 19.1781 15.298C16.2609 17.4026 12.7585 18.5302 9.16784 18.5209H9.13848Z" fill="white"/>
<path d="M135.417 24.8651C131.535 24.8761 127.765 23.5614 124.723 21.1364C121.682 18.7114 119.549 15.32 118.676 11.5176L122.492 10.6422C122.929 12.553 123.78 14.3433 124.985 15.8853C126.189 17.4272 127.718 18.6826 129.461 19.562C131.204 20.4415 133.119 20.9233 135.069 20.9728C137.018 21.0224 138.955 20.6385 140.74 19.8488L142.315 23.4488C140.138 24.3956 137.789 24.8779 135.417 24.8651Z" fill="white"/>
<path d="M97.3066 14.2127H96.4554C93.4415 14.057 90.5212 13.1082 87.9867 11.4614C85.4522 9.81463 83.3924 7.52751 82.0135 4.82902L85.4967 3.02905C86.5557 5.11123 88.1417 6.87615 90.095 8.14606C92.0484 9.41596 94.3001 10.1461 96.6235 10.2628C98.9468 10.3794 101.26 9.87852 103.329 8.81064C105.399 7.74277 107.152 6.14564 108.412 4.17992L111.7 6.32412C110.14 8.73663 108.008 10.721 105.495 12.0981C102.983 13.4753 100.169 14.202 97.3066 14.2127Z" fill="white"/>
</g>
<defs>
<clipPath id="clip0_31_2329">
<rect width="141.631" height="53.7838" fill="white" transform="translate(0.684692 0.540527)"/>
</clipPath>
</defs>
</svg>
