<svg width="138" height="153" viewBox="0 0 138 153" fill="none" xmlns="http://www.w3.org/2000/svg">
<path d="M111.567 151.281C110.7 151.106 109.851 150.889 109.027 150.63C106.916 149.853 104.844 149.004 102.753 148.184C102.145 147.943 101.518 147.746 100.94 147.477C99.2469 146.642 97.5703 145.792 95.9104 144.924C94.6754 144.288 93.4106 143.666 92.2453 142.944C89.8849 141.474 87.5344 139.989 85.2736 138.433C83.4112 137.167 81.6483 135.803 79.8855 134.445C78.7601 133.575 77.7342 132.635 76.6686 131.716C75.2045 130.457 73.6807 129.199 72.2864 127.912C69.8363 125.727 67.6353 123.365 64.9462 121.336C64.8566 121.265 64.7868 121.18 64.6972 121.102C62.4165 119.066 60.1457 117.023 57.855 115C56.7395 114.025 55.5643 113.098 54.4488 112.13C53.3334 111.161 52.4569 110.305 51.4012 109.421C49.7878 108.007 48.1146 106.692 46.5111 105.299C45.286 104.224 44.1905 103.058 42.9456 102.004C40.8441 100.208 38.643 98.4686 36.5117 96.708C35.5854 95.9302 34.719 95.0887 33.8425 94.2685C30.516 91.1998 27.0601 88.2229 23.883 85.034C21.0844 82.2056 18.5646 79.1793 16.0946 76.1529C12.7485 72.0705 9.9348 67.7795 7.68877 63.3335C6.76253 61.488 5.79646 59.6354 5.10925 57.7333C4.11329 55.0818 3.41613 52.3736 2.62932 49.6867C1.76412 46.7904 1.20153 43.8527 0.946157 40.8976C0.796764 39.1511 0.607536 37.4046 0.478061 35.6581C0.398385 34.548 0.418302 33.4378 0.378464 32.3277C0.23903 29.0963 0 25.872 0 22.6406C0 20.088 0.308746 17.5354 0.428261 14.9758C0.600071 11.8912 1.08268 8.8193 1.8724 5.78365C2.20106 4.4614 2.64924 3.16036 3.14722 1.87346C3.446 1.10273 3.9141 0.360288 5.20884 0.367359C5.44787 0.367359 5.6869 0.240084 5.92593 0.169375C6.92188 -0.127602 7.26051 -0.0639633 7.91784 0.600699C8.33972 1.03143 8.70005 1.49095 8.99347 1.97245C11.1647 5.74829 13.545 9.43928 16.0548 13.0808C18.5649 16.874 21.4782 20.5261 24.7694 24.0053C27.8369 27.1377 31.0937 30.164 34.3405 33.1974C36.3324 35.0712 38.4936 36.846 40.5752 38.6703C42.3878 40.2541 44.1805 41.8592 46.0231 43.4219C47.3875 44.5745 48.8117 45.6704 50.226 46.7876C52.1183 48.2796 54.1202 49.6938 55.893 51.2635C57.5462 52.7201 59.7274 53.7454 61.0918 55.4141C61.1797 55.4844 61.2801 55.5462 61.3906 55.5979C62.5559 56.3686 63.771 57.097 64.8864 57.9172C67.4958 59.8263 69.8662 61.891 72.6648 63.687C72.7952 63.7762 72.9183 63.8706 73.0333 63.9699C73.7903 64.5921 74.4974 65.2709 75.324 65.8365C78.5609 68.0568 81.8874 70.2063 85.0844 72.462C88.2814 74.7176 91.6179 77.1499 94.8149 79.5328C96.6574 80.947 98.4202 82.3612 100.143 83.8744C102.52 85.9343 104.844 88.0226 107.115 90.1391C108.44 91.3624 109.675 92.6564 110.9 93.9433C112.822 95.9585 114.814 97.9383 116.586 100.031C119.51 103.241 122.189 106.56 124.614 109.973C125.909 111.939 127.393 113.827 128.727 115.771C129.464 116.832 130.092 117.942 130.719 119.045C131.825 120.94 132.99 122.821 133.956 124.765C135.721 128.297 136.988 131.945 137.74 135.654C138.451 139.158 137.696 142.733 135.569 145.935C134.531 147.49 133.16 148.921 131.506 150.178C130.041 151.333 128.1 152.13 125.958 152.455C124.245 152.745 122.502 152.723 120.799 152.971C119.459 153.053 118.108 152.96 116.815 152.695C114.99 152.386 113.207 151.963 111.487 151.429L111.567 151.281ZM111.477 122.743C110.003 121.265 108.489 119.794 107.035 118.324C106.843 118.184 106.7 118.015 106.617 117.829C106.477 116.966 105.621 116.528 104.954 115.983C103.984 115.315 103.098 114.589 102.304 113.812C101.774 113.115 101.385 112.367 101.149 111.592C99.7216 108.16 98.3239 104.726 96.9562 101.29C96.3088 99.6848 95.8407 98.0302 95.1037 96.4534C93.5201 93.1089 91.8868 89.7856 90.1239 86.4976C88.8391 84.0723 87.3452 81.7177 85.9708 79.3278C85.7019 78.8682 85.5326 78.3732 85.3035 77.9136C84.9748 77.2702 84.4071 76.9449 83.7996 77.0227C83.3695 77.1032 82.9819 77.2713 82.6846 77.5062C82.3873 77.7412 82.1933 78.0327 82.1264 78.3449C82.1064 78.6468 82.1466 78.9491 82.2459 79.2429C82.6941 80.6571 83.1323 82.1208 83.6602 83.5491C84.6561 86.229 85.6521 88.8947 86.7078 91.5675C87.2257 92.9251 87.5942 94.318 88.2117 95.6403C89.1379 97.6555 90.2036 99.6353 91.1996 101.622C91.9769 103.008 92.6419 104.425 93.1915 105.865L90.1239 103.355C88.2216 101.813 86.3194 100.279 84.4271 98.7302C82.5347 97.1817 80.9014 95.817 79.1186 94.3746C77.784 93.2927 76.4196 92.2533 75.0452 91.1785C73.9697 90.3831 73.1059 89.456 72.4955 88.4421C70.9418 85.8118 69.2089 83.2592 67.6253 80.6642C65.4043 77.0227 63.2531 73.3529 61.0719 69.6902C58.602 65.5467 56.142 61.389 53.6421 57.2525C53.1536 56.5204 52.598 55.8118 51.9789 55.1313C51.6303 54.7212 51.1323 54.4878 50.455 54.7494C50.4424 54.86 50.4424 54.9712 50.455 55.0818C52.5349 59.0847 54.3136 63.1632 55.7834 67.3002C56.8889 70.2771 58.1538 73.2115 59.5083 76.1176C60.2423 77.4714 61.0802 78.7956 62.0181 80.0844C62.1753 80.2899 62.2478 80.5227 62.2272 80.7561C61.5998 80.2823 60.9325 79.8298 60.3548 79.3419C57.4566 76.7893 54.5484 74.2438 51.7 71.6488C49.4989 69.6407 47.3875 67.5689 45.2462 65.5254C43.3439 63.7082 41.4417 61.8981 39.5892 60.0597C38.5235 59.0132 37.5973 57.8677 36.5216 56.8353C34.948 55.3363 33.225 53.9363 31.6713 52.416C30.1177 50.8958 28.6835 49.319 27.2493 47.721C23.0868 43.0231 19.3703 38.1334 16.1245 33.0843C15.756 32.5186 15.4473 31.9247 15.1285 31.3378C15.029 31.1539 14.9393 30.963 14.8198 30.7862C14.5708 30.4327 14.2521 30.1994 13.6844 30.3761C13.554 30.4107 13.4345 30.4632 13.3328 30.5307C13.2311 30.5982 13.1492 30.6793 13.0918 30.7693C13.0344 30.8593 13.0027 30.9565 12.9984 31.0553C12.9941 31.1541 13.0174 31.2525 13.0669 31.3448C13.2426 31.8977 13.4824 32.4393 13.784 32.9641C15.5568 35.7924 17.3097 38.5783 19.1721 41.3501C21.413 44.6805 23.6938 48.0038 26.0641 51.2493C27.568 53.3282 29.3807 55.2585 30.8646 57.3444C33.8525 61.5233 37.6471 65.1719 41.5313 68.7992C43.812 70.9205 45.9633 73.162 48.3137 75.2408C52.5266 78.946 56.8391 82.5733 61.1118 86.236C61.2741 86.3623 61.3963 86.5118 61.4703 86.6744C59.4784 85.6279 57.367 84.6026 55.3352 83.542C51.8195 81.7107 48.3038 79.8864 44.8279 78.0126C42.2285 76.5984 39.6689 75.1842 37.1292 73.6994C34.3206 72.0731 31.512 70.4468 28.7632 68.7497C23.669 65.5752 18.9552 62.1056 14.6704 58.3768C14.4412 58.1409 14.17 57.927 13.8637 57.7404C13.7438 57.6921 13.6082 57.6666 13.4703 57.6666C13.3324 57.6666 13.1968 57.6921 13.0769 57.7404C12.9094 57.9219 12.8453 58.1418 12.8976 58.3556C12.9457 58.5528 13.0583 58.7393 13.2263 58.9C14.8895 60.8092 16.493 62.7607 18.2758 64.6062C20.0585 66.4517 21.9608 68.3043 23.9627 70.0437C25.5831 71.4492 27.3296 72.779 29.1914 74.0246C32.9632 76.5566 36.9548 78.9182 41.1429 81.0955C45.1267 83.139 49.1105 85.0976 53.0943 87.0138C57.5462 89.1351 62.0579 91.1008 66.5397 93.1796C68.193 93.9503 69.7367 94.8413 71.3402 95.6685C71.6 95.8371 71.9048 95.967 72.2366 96.0504C73.4191 96.3143 74.4475 96.8457 75.1647 97.5635C76.3797 98.5464 77.7044 99.4515 78.9194 100.434C80.3735 101.608 81.7579 102.853 83.1921 104.048C84.0386 104.755 84.925 105.426 85.7915 106.126C86.1566 106.393 86.4383 106.711 86.6182 107.06C86.434 107.042 86.2535 107.009 86.0803 106.961C83.8295 106.084 81.6085 105.172 79.3477 104.323C77.0869 103.475 74.7065 102.676 72.376 101.848C70.9418 101.332 69.5276 100.795 68.0834 100.307C65.5836 99.4656 63.1037 98.6525 60.554 97.8322C58.8709 97.2807 57.1777 96.7433 55.4846 96.1989L52.0585 95.1029C48.7385 94.0155 45.5185 92.7804 42.4177 91.4048C42.1716 91.2448 41.85 91.1561 41.5164 91.1561C41.1827 91.1561 40.8611 91.2448 40.615 91.4048C40.9536 91.6594 41.2225 91.8856 41.5213 92.1119C44.7333 94.1075 48.2086 95.8787 51.8992 97.4009C55.5444 98.9919 59.2792 100.434 62.9742 101.955C64.9661 102.775 66.958 103.637 68.9499 104.444C70.6928 105.151 72.4756 105.78 74.2384 106.438C76.808 107.399 79.3776 108.368 81.9571 109.308C83.7697 109.973 85.5923 110.609 87.4249 111.232C89.2574 111.854 91.1995 112.441 93.062 113.105C93.6245 113.344 94.1152 113.658 94.5061 114.032C97.826 117.025 101.119 120.023 104.386 123.026C106.258 124.73 108.101 126.448 110.033 128.223C107.991 127.353 106.049 126.512 104.167 125.713C103.46 125.423 102.673 125.239 101.926 125.006C97.4741 123.514 93.1317 121.788 88.5105 120.6C86.7775 120.155 85.0645 119.653 83.3415 119.186L74.0791 116.62C73.7953 116.509 73.4732 116.459 73.1504 116.474C72.8277 116.489 72.5176 116.569 72.2565 116.704C71.7187 117.001 71.5892 117.291 71.9876 117.694C72.2531 117.961 72.5919 118.187 72.9835 118.359C75.9714 119.646 78.8995 120.989 81.9471 122.163C84.9947 123.337 87.9229 124.249 90.9107 125.295C93.2811 126.13 95.6216 126.993 97.982 127.841C98.3057 127.947 98.6384 128.039 98.978 128.117C101.577 128.824 104.237 129.474 106.776 130.33C109.316 131.186 111.985 132.303 114.525 133.378C115.189 133.71 115.735 134.148 116.118 134.657C117.433 136.227 118.678 137.839 119.933 139.437C120.182 139.755 120.52 140.01 120.929 139.883C121.098 139.815 121.243 139.721 121.355 139.609C121.467 139.496 121.543 139.368 121.576 139.232C121.692 138.763 121.668 138.281 121.506 137.818C120.979 136.609 120.391 135.414 119.724 134.247C118.937 132.868 118.07 131.518 117.194 130.167C116.759 129.503 116.534 128.779 116.537 128.046C116.487 124.369 116.407 120.699 116.238 117.023C116.012 114.064 115.439 111.124 114.525 108.233C114.387 107.813 114.183 107.405 113.917 107.017C113.855 106.864 113.71 106.735 113.514 106.657C113.319 106.579 113.088 106.559 112.872 106.6C112.324 106.713 112.344 107.074 112.393 107.42C112.921 111.154 112.722 114.894 112.762 118.635C112.762 120.113 113.021 121.59 113.15 123.068C113.15 123.464 113.2 123.853 113.24 124.482C112.493 123.789 112.035 123.259 111.477 122.743Z" fill="url(#paint0_linear_27_1794)"/>
<defs>
<linearGradient id="paint0_linear_27_1794" x1="131.844" y1="154.166" x2="60.0581" y2="11.0758" gradientUnits="userSpaceOnUse">
<stop offset="0.35" stop-color="white" stop-opacity="0"/>
<stop offset="1" stop-color="#FBFEFF" stop-opacity="0.8"/>
</linearGradient>
</defs>
</svg>
