<svg width="160" height="160" viewBox="0 0 160 160" fill="none" xmlns="http://www.w3.org/2000/svg">
<path opacity="0.3" d="M75.702 94.4283C78.3607 92.3889 80.7261 90.4556 83.2171 88.6859C86.3373 86.3701 89.2588 83.8449 91.9553 81.1331C94.5692 78.5991 97.0933 75.9805 99.7679 73.5108C102.721 70.8356 105.986 68.4547 109.504 66.4116C110.847 65.6224 112.142 64.7674 113.501 64.0001C116.131 62.4998 118.796 61.0786 121.402 59.4977C123.514 58.237 125.589 56.8854 127.579 55.4961C129.57 54.1068 131.258 52.8604 133.124 51.4263C136.109 48.9453 138.685 46.0953 140.772 42.9666C142.491 40.4782 144.058 37.9094 145.464 35.2719C147.327 31.7854 148.976 28.2135 150.402 24.5729C151.163 22.5669 152.034 20.5954 152.85 18.595C153.665 16.5945 154.336 14.73 155.178 12.8454C156.292 10.3336 157.523 7.91508 158.698 5.46755C158.774 5.31392 158.879 5.17266 159.008 5.05012C159.39 4.55397 159.654 3.99451 159.784 3.40741C159.914 2.82031 159.907 2.21849 159.763 1.64035C159.761 1.5353 159.733 1.43255 159.682 1.33889C159.632 1.24522 159.559 1.16274 159.47 1.09685C159.381 1.03096 159.276 0.983175 159.164 0.956591C159.051 0.930008 158.933 0.925251 158.817 0.942626C158.254 0.963334 157.699 1.08549 157.184 1.30184C155.566 2.01634 153.951 2.75433 152.356 3.54946C148.511 5.40992 144.845 7.56267 141.398 9.98342C136.169 13.7205 131.556 18.1098 127.706 23.0122C125.095 26.4401 122.699 29.9931 120.528 33.6542C116.721 39.9471 112.901 46.2416 109.008 52.4851C104.333 60.0661 99.0768 67.3558 93.2788 74.2999C87.9115 80.5374 81.7526 86.1982 74.9321 91.1627C74.2499 91.6732 73.4712 92.0677 72.6357 92.3262C72.8307 92.0719 73.0521 91.8345 73.2969 91.6173C75.8044 89.7233 78.1445 87.6563 80.295 85.4361C82.3521 83.3888 84.0879 81.101 85.4523 78.6388C86.5393 76.6024 87.0619 74.3711 86.9746 72.1393C86.9229 71.6271 86.8189 71.1214 86.6638 70.6286C86.5534 70.2115 86.4811 69.7862 86.4477 69.3568C86.239 66.0042 85.5465 62.7013 84.3873 59.5306C84.1407 58.5686 83.9723 57.5901 83.8832 56.6026C83.7078 55.1118 83.531 53.6092 83.4881 52.1146C83.3071 49.7418 83.3019 47.3568 83.4724 44.9752C83.8691 41.453 84.5626 37.9672 85.243 34.483C85.824 31.5104 86.5548 28.5677 87.2041 25.6108C87.4185 24.8142 87.5413 24.002 87.5705 23.1872C87.5073 22.4756 87.3535 21.7749 87.112 21.0989C87.0775 20.8054 86.8359 20.5601 86.7489 20.2728C86.3747 19.1267 85.7948 18.719 84.5551 18.8057C83.1161 18.9991 81.751 19.5341 80.6021 20.355C76.9107 22.6025 73.6424 25.3727 70.9293 28.5537C68.723 31.1337 66.952 33.9866 65.6756 37.0168C64.6307 39.4371 63.728 41.9359 62.9502 44.4795C62.0258 47.5175 61.4292 50.6212 61.1686 53.7471C60.9065 56.7178 60.9674 59.7218 60.9925 62.6467C61.0195 64.7978 60.9127 66.9409 60.8873 69.0982C60.8812 70.2891 60.9075 71.4167 60.9524 72.5897C61.0323 77.1478 60.5254 81.7125 59.4416 86.1934C58.5599 90.0229 57.4524 93.8127 56.1236 97.5466C55.9892 98.0077 55.7427 98.4387 55.4021 98.8084C55.0614 99.178 54.6352 99.4768 54.1544 99.6831C47.1519 103.116 40.1336 106.526 33.4245 110.531C31.9087 111.436 30.4462 112.453 28.9532 113.438C28.7155 113.58 28.4686 113.709 28.2139 113.823C28.2922 113.553 28.3992 113.289 28.5335 113.036C31.5815 108.911 34.3187 104.611 36.726 100.168C38.8065 96.3755 40.154 92.3072 40.7094 88.1408C41.0196 85.2064 41.051 82.2601 40.8034 79.334C40.5763 77.4156 40.1182 75.5302 39.437 73.7108C38.5706 71.2064 37.729 68.6872 36.6976 66.2499C35.6453 64.075 34.8687 61.7954 34.382 59.4532C34.153 57.8272 34.0355 56.1875 34.0304 54.5433C34.0546 50.8848 34.5574 47.2303 35.5282 43.6548C35.8725 42.1741 36.0947 40.672 36.439 39.1913C36.5299 38.8363 36.5329 38.4696 36.4478 38.1176C36.3627 37.7655 36.1916 37.4367 35.9468 37.1545C35.6257 36.7438 35.3593 36.3 35.1529 35.8318C34.7967 35.0645 34.3742 34.8644 33.5376 34.9868C32.2369 35.2724 31.0666 35.9334 30.2086 36.8672C27.1634 39.6989 24.4312 42.7881 22.0524 46.0891C20.7817 47.8339 19.4821 49.5582 18.3129 51.3743C16.883 53.7239 15.6721 56.1718 14.693 58.6925C13.0799 62.7956 11.9247 67.0228 11.2446 71.3107C10.7262 74.3982 10.6027 77.5197 10.8765 80.6139C11.0575 82.1518 11.0548 83.7112 11.1964 85.2537C11.2978 86.1519 11.4515 87.0436 11.657 87.925C11.9614 90.2297 12.456 92.5066 13.1367 94.737C13.2596 95.2727 13.3239 95.8192 13.3287 96.3688C13.6381 98.32 13.9867 100.266 14.2685 102.209C14.6383 105.107 14.8176 108.027 14.8054 110.953C14.8374 114.615 14.9757 118.277 15.0339 121.936C15.045 122.708 14.8973 123.487 14.9216 124.258C14.9434 125.068 14.7058 125.872 14.237 126.576C13.054 128.501 11.8579 130.427 10.6998 132.337C9.22738 134.891 7.75499 137.446 6.2826 140C4.59096 142.913 2.88759 145.839 1.25394 148.793C-0.379718 151.747 -1.72006 154.369 -3.1853 157.172C-3.284 157.35 -3.3406 157.547 -3.45447 157.823L-0.221196 159.084C0.996759 157.155 2.21427 155.222 3.4313 153.285C4.37134 151.782 5.26927 150.26 6.18032 148.736C8.27158 145.264 10.3469 141.77 12.4513 138.296C13.9587 135.738 15.5337 133.303 17.0742 130.8C17.264 130.56 17.4299 130.305 17.5698 130.039C17.6858 129.538 17.9707 129.076 18.3856 128.719C18.8005 128.361 19.325 128.124 19.8875 128.04C20.2243 127.944 20.5402 127.794 20.8194 127.597C22.5128 126.615 24.4349 126.009 26.4221 125.83C26.9729 125.765 27.5272 125.616 28.0766 125.539C30.226 125.265 32.4033 125.359 34.492 125.818C37.2626 126.314 39.944 127.121 42.4736 128.221C44.0343 128.942 45.6054 129.637 47.1675 130.369C48.3361 130.922 49.4841 131.525 50.6438 132.114C51.3651 132.481 52.0616 132.863 52.7843 133.242C54.118 133.954 55.4592 134.617 56.759 135.38C58.0588 136.143 59.1329 136.909 60.3147 137.686C61.3871 138.525 62.552 139.265 63.7924 139.894C66.1076 140.812 68.1281 142.275 70.3446 143.371C72.2663 144.334 74.1128 145.449 76.0967 146.263C78.7057 147.33 81.427 148.173 84.2247 148.78C87.1009 149.287 90.0925 149.126 92.9192 148.314C95.3359 147.713 97.6288 146.742 99.6953 145.444C103.205 143.292 106.493 140.833 109.783 138.398C112.083 136.699 114.258 134.847 116.48 133.05C116.86 132.825 117.13 132.478 117.233 132.083C117.336 131.689 117.263 131.277 117.03 130.938C116.876 130.514 116.784 130.073 116.755 129.625C115.785 129.427 114.767 129.461 113.802 129.724C110.822 130.31 107.782 130.556 104.753 130.457C100.953 130.342 97.2145 129.673 93.6834 128.478C91.1584 127.586 88.5781 126.902 86.1214 125.799C83.6621 124.733 81.3592 123.407 79.2607 121.848C77.4825 120.522 75.4661 119.546 73.5354 118.393C73.0729 118.03 72.589 117.69 72.0858 117.373C69.5896 116.144 66.933 115.187 64.171 114.522C61.6019 113.932 58.9795 113.682 56.3814 113.298C53.5042 112.803 50.5765 112.543 47.6337 112.521C44.9559 112.666 42.285 112.941 39.6329 113.345C38.6231 113.465 37.6132 113.584 36.6131 113.785L36.5026 113.524C37.2808 112.918 38.1037 112.359 38.9653 111.853C44.2574 109.253 49.3955 106.362 54.9575 104.361C55.1593 104.247 55.3915 104.187 55.6269 104.186C55.8624 104.186 56.0913 104.246 56.2869 104.359C56.9848 104.753 57.6067 104.275 58.2376 103.986C59.3709 103.448 60.4525 102.809 61.5687 102.237C63.4271 101.239 65.5893 100.825 67.7064 101.06C71.6016 101.506 75.5375 101.732 79.4451 102.056C82.7922 102.364 86.1641 102.657 89.4829 103.063C95.4507 103.863 101.504 104.153 107.562 103.93C110.842 103.826 114.119 103.575 117.38 103.177C121.875 102.489 126.175 100.934 129.981 98.6197C135.387 95.3597 140.171 91.3238 144.133 86.6793C147.403 82.9373 150.493 79.026 153.688 75.2213C153.947 74.9984 154.121 74.7085 154.185 74.3945C154.248 74.0805 154.198 73.759 154.042 73.4777C153.849 73.0838 153.922 72.4564 153.629 72.2291C153.1 71.8034 152.415 71.9676 151.756 72.1286C149.909 72.5963 148.064 73.0758 146.185 73.3807C142.994 73.7646 139.773 73.7927 136.595 73.4643C132.27 73.2126 127.951 72.8889 123.631 72.7913C121.344 72.7892 119.056 72.9714 116.794 73.3358C113.833 73.9166 110.983 74.9199 108.354 76.3069C103.732 78.3555 99.2846 80.7184 95.0513 83.3745C91.1163 85.9809 87.1813 88.5874 83.1483 91.0388C81.0795 92.182 78.9479 93.228 76.7622 94.1723C76.4194 94.2924 76.0638 94.3782 75.702 94.4283Z" fill="url(#paint0_linear_27_1796)"/>
<defs>
<linearGradient id="paint0_linear_27_1796" x1="233.947" y1="44.3411" x2="-16.3367" y2="146.713" gradientUnits="userSpaceOnUse">
<stop offset="0.369792" stop-color="#010101" stop-opacity="0.2"/>
<stop offset="1" stop-color="#010101"/>
</linearGradient>
</defs>
</svg>
